# xmcd
#
# Track frame offsets: 
#        150
#        19327
#        34832
#        49482
#        62492
#        76195
#        91312
#        106565
#        123847
#        139302
#
# Disc length: 2144 seconds
#
# Revision: 0
# Processed by: cddbd v1.5.1PL0 Copyright (c) Steve Scherf et al.
# Submitted via: ExactAudioCopy v0.95a5
#
DISCID=7b085e0a
DTITLE=Bob Jares and Cornerstone - Blue Skies Again
DYEAR=1995
DGENRE=Country
TTITLE0=Blue skies again
TTITLE1=Stereo women
TTITLE2=Think about it baby
TTITLE3=Near and dear
TTITLE4=Straight love
TTITLE5=Baby you got it
TTITLE6=Out of my mind
TTITLE7=Love lock
TTITLE8=Kid with the arrow
TTITLE9=Blessing in disguise
EXTD=
EXTT0=
EXTT1=
EXTT2=
EXTT3=
EXTT4=
EXTT5=
EXTT6=
EXTT7=
EXTT8=
EXTT9=
PLAYORDER=
